<svg width="24" height="24" viewBox="0 0 24 24" fill="none" xmlns="http://www.w3.org/2000/svg">
<path fill-rule="evenodd" clip-rule="evenodd" d="M14.5045 3.67444L14.7078 3.34752L14.911 3.02531L15.364 2.30093C15.4203 2.21155 15.3971 2.09161 15.3131 2.03281C15.2303 1.97284 15.1165 1.99753 15.0624 2.0869L14.3709 3.18877L14.1632 3.52039C13.5059 3.24874 12.7735 3.09704 12.0002 3.09704C11.228 3.09704 10.4945 3.24874 9.83723 3.52039L9.63065 3.18877L9.42628 2.86303L8.94022 2.0869C8.88388 1.99753 8.77121 1.97401 8.68725 2.03281C8.6044 2.09161 8.5812 2.21155 8.63644 2.30093L9.08935 3.02531L9.29262 3.34752L9.49698 3.67444C7.95374 4.43998 6.90981 5.88993 6.90981 7.54919H17.0906C17.0906 5.88993 16.0467 4.43998 14.5045 3.67444ZM9.27298 5.41959C9.27298 5.74062 9.51712 6.0005 9.81869 6.0005C10.1203 6.0005 10.3644 5.74062 10.3644 5.41959C10.3644 5.09855 10.1203 4.83984 9.81869 4.83984C9.51712 4.83984 9.27298 5.09855 9.27298 5.41959ZM13.6357 5.41959C13.6357 5.74062 13.8799 6.0005 14.1815 6.0005C14.483 6.0005 14.7272 5.74062 14.7272 5.41959C14.7272 5.09855 14.483 4.83984 14.1815 4.83984C13.8799 4.83984 13.6357 5.09855 13.6357 5.41959ZM6.90981 8.32251H6.98824H17.0906V16.8387C17.0906 17.5149 16.5758 18.0653 15.9395 18.0653H15.1077C15.1364 18.1676 15.153 18.2746 15.153 18.3875V20.8393C15.153 21.4802 14.6636 22 14.0604 22C13.4584 22 12.9701 21.4802 12.9701 20.8393V18.3875C12.9701 18.2746 12.9856 18.1676 13.0132 18.0653H10.9872C11.0148 18.1676 11.0314 18.2746 11.0314 18.3875V20.8393C11.0314 21.4802 10.542 22 9.93996 22C9.33791 22 8.84853 21.4802 8.84853 20.8393V18.3875C8.84853 18.2746 8.864 18.1676 8.89272 18.0653H8.062C7.4257 18.0653 6.90981 17.5149 6.90981 16.8387V8.32251ZM5.09143 8.32251C4.48827 8.32251 4 8.84228 4 9.48317V14.4516C4 15.0925 4.48827 15.6122 5.09143 15.6122C5.69348 15.6122 6.18175 15.0925 6.18175 14.4516V9.48317C6.18175 8.84228 5.69348 8.32251 5.09143 8.32251ZM17.8182 9.48317C17.8182 8.84228 18.3065 8.32251 18.9096 8.32251C19.5117 8.32251 19.9999 8.84228 19.9999 9.48317V14.4516C19.9999 15.0925 19.5117 15.6122 18.9096 15.6122C18.3065 15.6122 17.8182 15.0925 17.8182 14.4516V9.48317Z" fill="#076B82"/>
</svg>
