<svg width="24" height="24" viewBox="0 0 24 24" fill="none" xmlns="http://www.w3.org/2000/svg">
<path d="M19.6647 17.0275C19.7831 16.7608 19.8945 16.483 20 16.193C19.5134 15.9997 19.0761 15.7275 18.6845 15.3753C17.8203 14.6164 17.3806 13.6607 17.3677 12.5122C17.3537 11.0376 18.0607 9.88824 19.49 9.0676C18.6915 7.99207 17.4908 7.39509 15.8927 7.27287C15.3029 7.22543 14.583 7.34587 13.73 7.63675C12.828 7.95041 12.2959 8.10774 12.1389 8.10774C11.9289 8.10774 11.45 7.97319 10.704 7.70786C9.95597 7.44342 9.35401 7.30887 8.89497 7.30887C8.05605 7.32209 7.27703 7.52875 6.55606 7.9343C5.83509 8.33984 5.25904 8.89227 4.82603 9.59258C4.27507 10.4644 4 11.5049 4 12.7112C4 13.7642 4.20402 14.852 4.61099 15.9753C4.991 17.0152 5.47607 17.9274 6.06607 18.7141C6.61598 19.4507 7.07501 19.9707 7.442 20.274C8.017 20.7807 8.59305 21.0218 9.17098 20.9985C9.55099 20.9862 10.048 20.8629 10.665 20.6262C11.281 20.3907 11.857 20.274 12.394 20.274C12.906 20.274 13.466 20.3907 14.0753 20.6262C14.6827 20.8629 15.2045 20.9796 15.6371 20.9796C16.2398 20.9662 16.8026 20.7318 17.3279 20.274C17.6667 19.9952 18.1064 19.4929 18.6434 18.7674C19.0374 18.2352 19.3774 17.6563 19.6647 17.0275ZM15.9994 3.3601C15.9994 3.24071 15.9936 3.12034 15.9795 3C15.4976 3.02369 14.9852 3.16204 14.4435 3.41221C13.9006 3.66617 13.453 3.98453 13.101 4.3674C12.396 5.1236 11.9989 6.04847 11.9989 6.91266C11.9989 7.0321 12.007 7.14577 12.021 7.25376C13.116 7.33809 14.1258 6.80366 14.9606 5.8788C15.6524 5.10083 15.9994 4.26031 15.9994 3.3601Z" fill="#076B82"/>
</svg>
