<svg width="24" height="24" viewBox="0 0 24 24" fill="none" xmlns="http://www.w3.org/2000/svg">
<path fill-rule="evenodd" clip-rule="evenodd" d="M6.14176 14.7121H6.91085V10.7971H6.14176V14.7121ZM10.789 10.147C9.81125 10.147 9.18944 10.912 9.18944 12.1147C9.18944 13.3133 9.7908 14.0865 10.789 14.0865C11.7749 14.0865 12.3803 13.3133 12.3803 12.1147C12.3803 10.912 11.7749 10.147 10.789 10.147ZM16.0787 9.39819C17.1301 9.39819 17.8992 10.0118 17.9483 10.8873H17.1628C17.0851 10.4086 16.6719 10.11 16.0664 10.11C15.4283 10.11 15.0069 10.4127 15.0069 10.8832C15.0069 11.2514 15.2769 11.4641 15.956 11.6236L16.5246 11.7627C17.5923 12.0123 18.0301 12.4418 18.0301 13.2232C18.0301 14.2173 17.261 14.8391 16.0296 14.8391C14.8801 14.8391 14.1069 14.2459 14.0496 13.3173H14.8473C14.9169 13.8082 15.3996 14.1232 16.091 14.1232C16.7373 14.1232 17.2119 13.7877 17.2119 13.3255C17.2119 12.9327 16.9133 12.6955 16.226 12.5318L15.5551 12.3723C14.6183 12.1514 14.1887 11.6973 14.1887 10.9364C14.1887 10.0118 14.9455 9.39819 16.0787 9.39819ZM10.7893 9.39819C12.2824 9.39819 13.2029 10.4414 13.2029 12.1146C13.2029 13.7836 12.2906 14.835 10.7893 14.835C9.27971 14.835 8.36335 13.7877 8.36335 12.1146C8.36335 10.4373 9.30016 9.39819 10.7893 9.39819ZM6.52602 9.16504C6.81238 9.16504 7.02511 9.36958 7.02511 9.63958C7.02511 9.90549 6.81238 10.11 6.52602 10.11C6.23556 10.11 6.02284 9.90549 6.02284 9.63958C6.02284 9.36958 6.23556 9.16504 6.52602 9.16504ZM7.90909 3C5.20091 3 3 5.20091 3 7.90909V16.0909C3 18.7991 5.20091 21 7.90909 21H16.0909C18.7991 21 21 18.7991 21 16.0909V7.90909C21 5.20091 18.7991 3 16.0909 3H7.90909Z" fill="#076B82"/>
</svg>
