<svg width="64" height="64" viewBox="0 0 64 64" fill="none" xmlns="http://www.w3.org/2000/svg">
<rect width="64" height="64" rx="12" fill="white"/>
<g clip-path="url(#clip0_13_632)">
<path d="M41 54H36V48H28V54H23C22.4473 54 22 54.4473 22 55C22 55.5527 22.4473 56 23 56H29H35H41C41.5527 56 42 55.5527 42 55C42 54.4473 41.5527 54 41 54Z" fill="#076B82"/>
<path d="M8 41C8 43.76 10.24 46 13 46H51C53.76 46 56 43.76 56 41V40H8V41ZM51 42C51.5601 42 52 42.4399 52 43C52 43.5599 51.5601 44 51 44C50.4399 44 50 43.5599 50 43C50 42.4399 50.4399 42 51 42ZM47 42C47.5601 42 48 42.4399 48 43C48 43.5599 47.5601 44 47 44C46.4399 44 46 43.5599 46 43C46 42.4399 46.4399 42 47 42ZM43 42C43.5601 42 44 42.4399 44 43C44 43.5599 43.5601 44 43 44C42.4399 44 42 43.5599 42 43C42 42.4399 42.4399 42 43 42ZM13 42H21C21.5601 42 22 42.4399 22 43C22 43.5599 21.5601 44 21 44H13C12.4399 44 12 43.5599 12 43C12 42.4399 12.4399 42 13 42Z" fill="#076B82"/>
<path d="M32 14C27.04 14 23 18.0399 23 23C23 27.96 27.04 32 32 32C36.96 32 41 27.96 41 23C41 18.0399 36.96 14 32 14ZM38 26C38 27.6599 36.66 29 35 29H29C27.34 29 26 27.6599 26 26V22C26 20.7 26.84 19.58 28 19.1799V19C28 16.7999 29.8 15 32 15C34.2 15 36 16.7999 36 19V19.1799C37.16 19.58 38 20.7 38 22V26Z" fill="#076B82"/>
<path d="M32 17C30.9 17 30 17.9 30 19H34C34 17.9 33.1 17 32 17Z" fill="#076B82"/>
<path d="M35 21H29C28.4399 21 28 21.4399 28 22V26C28 26.5599 28.4399 27 29 27H35C35.5601 27 36 26.5599 36 26V22C36 21.4399 35.5601 21 35 21ZM32 25C31.4399 25 31 24.5599 31 24C31 23.4399 31.4399 23 32 23C32.5601 23 33 23.4399 33 24C33 24.5599 32.5601 25 32 25Z" fill="#076B82"/>
<path d="M51 8H13C10.24 8 8 10.24 8 13V38H56V13C56 10.24 53.76 8 51 8ZM32 34C25.9399 34 21 29.0599 21 23C21 16.9399 25.9399 12 32 12C38.0601 12 43 16.9399 43 23C43 29.0599 38.0601 34 32 34Z" fill="#076B82"/>
</g>
<defs>
<clipPath id="clip0_13_632">
<rect width="48" height="48" fill="white" transform="translate(8 8)"/>
</clipPath>
</defs>
</svg>
