<svg width="64" height="64" viewBox="0 0 64 64" fill="none" xmlns="http://www.w3.org/2000/svg">
<rect width="64" height="64" rx="12" fill="white"/>
<path d="M31.8468 31.1018C31.8102 31.0818 31.7689 31.0758 31.7344 31.0508C29.8809 29.709 27.6855 29 25.3809 29C19.3164 29 14.3809 33.9356 14.3809 40C14.3809 46.0645 19.3164 51 25.3809 51C31.4453 51 36.3809 46.0645 36.3809 40C36.3809 37.7032 35.6777 35.5039 34.3457 33.6426C34.3209 33.6078 34.3153 33.5671 34.2955 33.5303C34.2644 33.4729 34.2369 33.4175 34.2178 33.3562C34.1979 33.2926 34.1875 33.2309 34.1807 33.1657C34.1739 33.1032 34.1705 33.0437 34.1757 32.9811C34.1809 32.9157 34.1947 32.8546 34.2125 32.7914C34.2292 32.7316 34.2487 32.6756 34.2767 32.6192C34.3075 32.557 34.3469 32.5028 34.3907 32.4474C34.4145 32.4175 34.4254 32.3812 34.4531 32.3535L37.3867 29.4199L35.9629 27.9961L33.0293 30.9453C32.9994 30.9756 32.9605 30.9877 32.9279 31.0133C32.8746 31.0548 32.8232 31.0935 32.7639 31.1229C32.703 31.1536 32.6418 31.1732 32.5772 31.1904C32.5188 31.2061 32.4631 31.2195 32.4031 31.2245C32.3358 31.23 32.2716 31.2255 32.2045 31.2174C32.1427 31.2103 32.0841 31.2011 32.0242 31.1824C31.9615 31.1629 31.9053 31.1338 31.8468 31.1018ZM32.3789 33C32.9316 33 33.3789 33.4473 33.3789 34V36C33.3789 37.6543 32.0332 39 30.3789 39V41C32.0332 41 33.3789 42.3457 33.3789 44V46C33.3789 46.5528 32.9316 47 32.3789 47C31.8262 47 31.3789 46.5528 31.3789 46V44C31.3789 43.4493 30.9297 43 30.3789 43H30.2778C29.8133 45.2799 27.7942 47 25.3789 47C22.9636 47 20.9445 45.2799 20.48 43H20.3789C19.8281 43 19.3789 43.4493 19.3789 44V46C19.3789 46.5528 18.9316 47 18.3789 47C17.8262 47 17.3789 46.5528 17.3789 46V44C17.3789 42.3457 18.7246 41 20.3789 41V39C18.7246 39 17.3789 37.6543 17.3789 36V34C17.3789 33.4473 17.8262 33 18.3789 33C18.9316 33 19.3789 33.4473 19.3789 34V36C19.3789 36.5508 19.8281 37 20.3789 37C20.3966 37 20.4112 37.0092 20.4287 37.01C20.4462 37.0092 20.4608 37 20.4785 37C20.943 34.7201 22.9636 33 25.3789 33C27.7942 33 29.8133 34.7201 30.2778 37H30.3789C30.9296 37 31.3789 36.5508 31.3789 36V34C31.3789 33.4473 31.8262 33 32.3789 33Z" fill="#076B82"/>
<path d="M22.3789 42C22.3789 43.302 23.2174 44.4016 24.3789 44.8158V39H22.3789V42Z" fill="#076B82"/>
<path d="M25.3789 35C24.0769 35 22.9773 35.8385 22.5631 37H28.1947C27.7805 35.8385 26.6809 35 25.3789 35Z" fill="#076B82"/>
<path d="M26.3789 44.8158C27.5404 44.4016 28.3789 43.302 28.3789 42V39H26.3789V44.8158Z" fill="#076B82"/>
<path d="M32.293 19.707L28.5859 16H8V55C8 55.5527 8.44726 56 9 56H55C55.5527 56 56 55.5527 56 55V20H33C32.7344 20 32.4805 19.8945 32.293 19.707ZM51.6211 27C51.6211 27.5527 51.1738 28 50.6211 28H49.207C48.6543 28 48.207 27.5527 48.207 27C48.207 26.4473 48.6543 26 49.207 26H50.6211C51.1738 26 51.6211 26.4473 51.6211 27ZM48.6719 23.293C49.0625 22.9023 49.6953 22.9023 50.0859 23.293C50.4766 23.6836 50.4766 24.3164 50.0859 24.707L49.0859 25.707C48.8906 25.9023 48.6348 26 48.3789 26C48.123 26 47.8672 25.9023 47.6719 25.707C47.2812 25.3164 47.2812 24.6836 47.6719 24.293L48.6719 23.293ZM45.3789 22.7578C45.3789 22.2051 45.8262 21.7578 46.3789 21.7578C46.9316 21.7578 47.3789 22.2051 47.3789 22.7578V24.1719C47.3789 24.7246 46.9316 25.1719 46.3789 25.1719C45.8262 25.1719 45.3789 24.7246 45.3789 24.1719V22.7578ZM35.959 25.5801C36.2246 25.5801 36.4805 25.6855 36.668 25.873L37.3809 26.5859L37.6738 26.293C39.1641 24.8047 41.5899 24.8008 43.0879 26.293C43.7422 26.9707 45.0274 26.9629 45.6621 26.3047C46.043 25.9063 46.6777 25.8985 47.0762 26.2813C47.4727 26.6641 47.4844 27.2969 47.0996 27.6953C45.7168 29.127 43.0352 29.125 41.6602 27.6934C40.9609 26.9941 39.7988 26.9941 39.0879 27.707L38.7949 28L39.5078 28.7129C39.8984 29.1035 39.8984 29.7363 39.5078 30.127L36.4194 33.2153C37.6827 35.2561 38.3809 37.5737 38.3809 40C38.3809 47.168 32.5488 53 25.3809 53C18.2129 53 12.3809 47.168 12.3809 40C12.3809 32.832 18.2129 27 25.3809 27C27.8156 27 30.1321 27.7036 32.1663 28.9773L35.252 25.875C35.4395 25.6855 35.6934 25.5801 35.959 25.5801Z" fill="#076B82"/>
<path d="M55 8H9C8.43994 8 8 8.43994 8 9V14H29C29.26 14 29.52 14.1 29.7 14.2999L33.42 18H56V9C56 8.43994 55.5601 8 55 8ZM38 14C36.9 14 36 13.1 36 12C36 10.9 36.9 10 38 10C39.1 10 40 10.9 40 12C40 13.1 39.1 14 38 14ZM44 14C42.9 14 42 13.1 42 12C42 10.9 42.9 10 44 10C45.1 10 46 10.9 46 12C46 13.1 45.1 14 44 14ZM50 14C48.9 14 48 13.1 48 12C48 10.9 48.9 10 50 10C51.1 10 52 10.9 52 12C52 13.1 51.1 14 50 14Z" fill="#076B82"/>
</svg>
