<?xml version="1.0" standalone="no"?>
<!DOCTYPE svg PUBLIC "-//W3C//DTD SVG 20010904//EN"
 "http://www.w3.org/TR/2001/REC-SVG-20010904/DTD/svg10.dtd">
<svg version="1.0" xmlns="http://www.w3.org/2000/svg"
 width="832.000000pt" height="832.000000pt" viewBox="0 0 832.000000 832.000000"
 preserveAspectRatio="xMidYMid meet">
<metadata>
Created by potrace 1.14, written by Peter Selinger 2001-2017
</metadata>
<g transform="translate(0.000000,832.000000) scale(0.100000,-0.100000)"
fill="#000000" stroke="none">
<path d="M2575 8200 c-134 -6 -168 -18 -208 -72 -29 -39 -37 -61 -42 -108 -2
-19 -6 -55 -9 -80 -8 -73 -49 -190 -68 -190 -4 0 -8 -6 -8 -14 0 -19 -105
-126 -155 -158 -56 -35 -150 -68 -209 -74 -102 -9 -126 -14 -155 -28 -40 -21
-79 -70 -91 -116 -10 -37 -16 -662 -7 -678 3 -4 2 -15 -2 -24 -3 -9 -4 -162
-1 -340 l5 -323 1153 0 1152 0 0 1102 0 1103 -132 0 c-73 0 -351 1 -618 3
-267 1 -539 0 -605 -3z"/>
<path d="M4465 8200 l-150 -5 0 -1097 c-1 -604 2 -1099 5 -1099 12 -3 2286 -5
2295 -2 7 2 10 233 10 676 l-1 672 -22 45 c-12 25 -39 57 -61 73 -39 27 -54
30 -172 41 -61 6 -140 33 -204 71 -48 28 -135 108 -135 124 0 6 -4 11 -10 11
-5 0 -10 7 -10 15 0 8 -4 15 -8 15 -5 0 -18 21 -29 48 -38 88 -37 84 -47 177
-14 135 -38 179 -123 220 -27 13 -112 16 -610 18 -318 1 -645 0 -728 -3z"/>
<path d="M987 7173 c-1 -1 -25 -4 -52 -7 -210 -20 -432 -187 -532 -400 -26
-55 -53 -144 -60 -195 -6 -49 -9 -4641 -3 -4650 3 -4 1706 -7 3785 -7 l3780 1
-1 2325 c0 1279 -3 2339 -7 2357 -18 99 -89 249 -155 325 -114 131 -269 220
-425 245 -17 2 -94 6 -169 7 l-138 2 -1 -610 c-1 -741 -5 -876 -33 -1026 -3
-14 -8 -47 -11 -73 -9 -79 -56 -296 -72 -337 -3 -8 -7 -26 -9 -40 -2 -14 -17
-65 -34 -115 -17 -49 -33 -97 -35 -105 -12 -46 -53 -154 -85 -225 -55 -123
-72 -161 -106 -230 -21 -44 -42 -81 -46 -83 -5 -2 -8 -8 -8 -13 0 -13 -132
-233 -142 -237 -4 -2 -8 -8 -8 -12 0 -5 -21 -39 -47 -75 -27 -37 -55 -77 -63
-89 -18 -26 -73 -99 -80 -106 -3 -3 -27 -32 -55 -65 -142 -171 -344 -370 -517
-506 -35 -28 -71 -56 -80 -64 -9 -7 -29 -22 -45 -32 -15 -9 -30 -20 -33 -23
-10 -10 -191 -130 -196 -130 -3 0 -18 -8 -32 -19 -103 -71 -541 -280 -574
-273 -5 1 -8 -3 -8 -8 0 -5 -3 -9 -7 -8 -7 3 -50 -12 -98 -33 -48 -21 -294
-109 -330 -118 -104 -27 -229 -17 -351 28 -104 38 -391 146 -429 162 -16 7
-32 13 -35 14 -3 1 -22 9 -43 18 -20 9 -40 16 -42 16 -3 0 -78 38 -168 84
-158 82 -311 173 -412 245 -66 47 -199 146 -205 152 -3 3 -34 30 -70 60 -35
30 -70 60 -76 65 -42 36 -209 204 -259 260 -100 111 -95 104 -184 220 -17 22
-41 53 -54 69 -12 16 -24 34 -26 40 -2 6 -7 13 -11 16 -19 15 -147 219 -214
340 -78 140 -226 471 -241 535 -1 6 -5 17 -8 25 -10 26 -57 182 -60 199 -1 9
-6 21 -9 27 -4 6 -10 26 -13 45 -3 19 -8 42 -11 51 -3 9 -7 25 -9 35 -2 10
-11 54 -20 98 -18 85 -25 122 -30 170 -2 17 -6 46 -9 65 -25 165 -29 280 -31
955 -1 352 -3 645 -4 650 -1 8 -236 16 -244 8z"/>
<path d="M1655 5568 c2 -24 7 -56 11 -73 3 -16 7 -39 9 -50 1 -11 8 -42 14
-68 6 -27 9 -53 6 -58 -4 -5 -2 -9 3 -9 5 0 9 -6 9 -12 0 -21 50 -197 83 -293
17 -49 33 -97 35 -105 14 -55 188 -418 226 -471 10 -15 19 -30 19 -33 0 -3 29
-50 65 -103 87 -131 99 -147 108 -151 4 -2 7 -8 7 -13 0 -5 8 -19 19 -31 10
-13 56 -68 101 -123 155 -187 398 -414 575 -536 28 -19 52 -37 53 -41 2 -5 10
-8 17 -8 7 0 15 -4 17 -8 4 -9 160 -107 243 -152 33 -18 66 -37 73 -43 6 -5
12 -6 12 -3 0 4 13 -2 29 -13 16 -12 32 -21 35 -21 3 0 35 -13 71 -30 35 -16
113 -48 172 -71 60 -23 141 -54 182 -70 40 -16 75 -29 77 -29 2 0 4 599 4
1330 l0 1330 -1140 0 -1140 0 5 -42z"/>
<path d="M4314 4280 c0 -732 0 -1330 1 -1330 5 1 171 63 196 74 20 8 39 12 43
9 3 -4 6 -1 6 5 0 7 3 11 8 10 4 -1 24 6 46 15 21 9 41 17 43 17 3 0 34 14 70
30 36 17 88 40 114 52 27 11 49 24 49 28 0 4 12 11 26 14 15 4 50 22 78 40 28
18 58 35 67 38 15 6 259 167 269 177 3 3 34 28 70 56 143 110 286 246 456 436
119 133 255 332 394 579 16 27 100 201 100 205 0 2 11 28 24 57 75 168 167
473 192 638 3 19 7 42 10 50 3 8 8 41 11 72 l5 58 -1139 0 -1139 0 0 -1330z"/>
<path d="M200 1514 c-45 -20 -77 -50 -101 -96 -17 -33 -18 -62 -18 -355 1
-366 7 -410 74 -548 48 -101 114 -182 193 -241 29 -21 58 -43 65 -49 29 -24
187 -90 187 -79 0 4 6 2 13 -4 6 -5 37 -13 67 -16 68 -8 6808 -9 6870 -1 25 4
70 13 100 22 30 9 61 16 68 16 6 0 12 4 12 9 0 4 5 8 12 8 26 0 152 84 207
140 50 50 149 179 143 187 -1 2 7 23 18 48 23 55 37 104 46 170 10 71 11 613
1 655 -13 55 -54 107 -103 129 l-44 21 -3887 0 c-3450 -1 -3892 -2 -3923 -16z"/>
</g>
</svg>
