<svg width="135" height="135" viewBox="0 0 135 135" fill="none" xmlns="http://www.w3.org/2000/svg">
<path d="M63.9161 7.23057C65.3856 4.26577 69.6144 4.26576 71.0839 7.23056L77.2227 19.6156C78.293 21.7749 81.0156 22.5044 83.0221 21.1695L94.531 13.5132C97.286 11.6804 100.948 13.7947 100.738 17.0971L99.8623 30.8922C99.7095 33.2974 101.703 35.2905 104.108 35.1377L117.903 34.2615C121.205 34.0518 123.32 37.714 121.487 40.469L113.83 51.9779C112.496 53.9844 113.225 56.707 115.384 57.7773L127.769 63.9161C130.734 65.3856 130.734 69.6144 127.769 71.0839L115.384 77.2227C113.225 78.293 112.496 81.0156 113.83 83.0221L121.487 94.531C123.32 97.286 121.205 100.948 117.903 100.738L104.108 99.8623C101.703 99.7095 99.7095 101.703 99.8623 104.108L100.738 117.903C100.948 121.205 97.286 123.32 94.531 121.487L83.0221 113.83C81.0156 112.496 78.293 113.225 77.2227 115.384L71.0839 127.769C69.6144 130.734 65.3856 130.734 63.9161 127.769L57.7773 115.384C56.707 113.225 53.9844 112.496 51.9779 113.83L40.469 121.487C37.714 123.32 34.0518 121.205 34.2615 117.903L35.1377 104.108C35.2905 101.703 33.2974 99.7095 30.8922 99.8623L17.0971 100.738C13.7947 100.948 11.6804 97.286 13.5132 94.531L21.1695 83.0221C22.5044 81.0156 21.7749 78.293 19.6156 77.2227L7.23057 71.0839C4.26577 69.6144 4.26576 65.3856 7.23056 63.9161L19.6156 57.7773C21.7749 56.707 22.5044 53.9844 21.1695 51.9779L13.5132 40.469C11.6804 37.714 13.7947 34.0518 17.0971 34.2615L30.8922 35.1377C33.2974 35.2905 35.2905 33.2974 35.1377 30.8922L34.2615 17.0971C34.0518 13.7947 37.714 11.6804 40.469 13.5132L51.9779 21.1695C53.9844 22.5044 56.707 21.7749 57.7773 19.6156L63.9161 7.23057Z" fill="#076B82"/>
<path d="M52.7285 89V80.36L66.2965 66.152C67.9605 64.36 69.1338 62.824 69.8165 61.544C70.5418 60.264 70.9045 58.984 70.9045 57.704C70.9045 54.4613 68.8352 52.84 64.6965 52.84C62.9898 52.84 61.2405 53.16 59.4485 53.8C57.6992 54.44 55.9498 55.4213 54.2005 56.744L50.5525 48.168C52.5152 46.632 54.8832 45.416 57.6565 44.52C60.4725 43.624 63.3738 43.176 66.3605 43.176C71.5658 43.176 75.5338 44.3067 78.2645 46.568C81.0378 48.8293 82.4245 52.0933 82.4245 56.36C82.4245 59.0907 81.8058 61.7147 80.5685 64.232C79.3312 66.7067 77.2618 69.352 74.3605 72.168L67.0645 79.464H84.0885V89H52.7285Z" fill="white"/>
</svg>
