<svg width="135" height="135" viewBox="0 0 135 135" fill="none" xmlns="http://www.w3.org/2000/svg">
<path d="M63.9161 7.23057C65.3856 4.26577 69.6144 4.26576 71.0839 7.23056L77.2227 19.6156C78.293 21.7749 81.0156 22.5044 83.0221 21.1695L94.531 13.5132C97.286 11.6804 100.948 13.7947 100.738 17.0971L99.8623 30.8922C99.7095 33.2974 101.703 35.2905 104.108 35.1377L117.903 34.2615C121.205 34.0518 123.32 37.714 121.487 40.469L113.83 51.9779C112.496 53.9844 113.225 56.707 115.384 57.7773L127.769 63.9161C130.734 65.3856 130.734 69.6144 127.769 71.0839L115.384 77.2227C113.225 78.293 112.496 81.0156 113.83 83.0221L121.487 94.531C123.32 97.286 121.205 100.948 117.903 100.738L104.108 99.8623C101.703 99.7095 99.7095 101.703 99.8623 104.108L100.738 117.903C100.948 121.205 97.286 123.32 94.531 121.487L83.0221 113.83C81.0156 112.496 78.293 113.225 77.2227 115.384L71.0839 127.769C69.6144 130.734 65.3856 130.734 63.9161 127.769L57.7773 115.384C56.707 113.225 53.9844 112.496 51.9779 113.83L40.469 121.487C37.714 123.32 34.0518 121.205 34.2615 117.903L35.1377 104.108C35.2905 101.703 33.2974 99.7095 30.8922 99.8623L17.0971 100.738C13.7947 100.948 11.6804 97.286 13.5132 94.531L21.1695 83.0221C22.5044 81.0156 21.7749 78.293 19.6156 77.2227L7.23057 71.0839C4.26577 69.6144 4.26576 65.3856 7.23056 63.9161L19.6156 57.7773C21.7749 56.707 22.5044 53.9844 21.1695 51.9779L13.5132 40.469C11.6804 37.714 13.7947 34.0518 17.0971 34.2615L30.8922 35.1377C33.2974 35.2905 35.2905 33.2974 35.1377 30.8922L34.2615 17.0971C34.0518 13.7947 37.714 11.6804 40.469 13.5132L51.9779 21.1695C53.9844 22.5044 56.707 21.7749 57.7773 19.6156L63.9161 7.23057Z" fill="#076B82"/>
<path d="M67.1925 89.704C64.2058 89.704 61.2405 89.2773 58.2965 88.424C55.3952 87.528 53.0912 86.3547 51.3845 84.904L54.9685 76.136C58.7658 78.7387 62.7552 80.04 66.9365 80.04C69.1125 80.04 70.7978 79.5707 71.9925 78.632C73.1872 77.6933 73.7845 76.3707 73.7845 74.664C73.7845 73 73.2085 71.6773 72.0565 70.696C70.9045 69.672 69.3685 69.16 67.4485 69.16C64.6752 69.16 62.2005 70.1413 60.0245 72.104H52.6645V43.88H82.1045V53.416H63.7365V61.416C65.6992 60.3493 67.9605 59.816 70.5205 59.816C73.3792 59.816 75.8965 60.4347 78.0725 61.672C80.2485 62.8667 81.9338 64.552 83.1285 66.728C84.3658 68.904 84.9845 71.4427 84.9845 74.344C84.9845 77.416 84.2592 80.1253 82.8085 82.472C81.3578 84.776 79.3098 86.568 76.6645 87.848C74.0192 89.0853 70.8618 89.704 67.1925 89.704Z" fill="white"/>
</svg>
