<svg width="135" height="135" viewBox="0 0 135 135" fill="none" xmlns="http://www.w3.org/2000/svg">
<path d="M63.9161 7.23057C65.3856 4.26577 69.6144 4.26576 71.0839 7.23056L77.2227 19.6156C78.293 21.7749 81.0156 22.5044 83.0221 21.1695L94.531 13.5132C97.286 11.6804 100.948 13.7947 100.738 17.0971L99.8623 30.8922C99.7095 33.2974 101.703 35.2905 104.108 35.1377L117.903 34.2615C121.205 34.0518 123.32 37.714 121.487 40.469L113.83 51.9779C112.496 53.9844 113.225 56.707 115.384 57.7773L127.769 63.9161C130.734 65.3856 130.734 69.6144 127.769 71.0839L115.384 77.2227C113.225 78.293 112.496 81.0156 113.83 83.0221L121.487 94.531C123.32 97.286 121.205 100.948 117.903 100.738L104.108 99.8623C101.703 99.7095 99.7095 101.703 99.8623 104.108L100.738 117.903C100.948 121.205 97.286 123.32 94.531 121.487L83.0221 113.83C81.0156 112.496 78.293 113.225 77.2227 115.384L71.0839 127.769C69.6144 130.734 65.3856 130.734 63.9161 127.769L57.7773 115.384C56.707 113.225 53.9844 112.496 51.9779 113.83L40.469 121.487C37.714 123.32 34.0518 121.205 34.2615 117.903L35.1377 104.108C35.2905 101.703 33.2974 99.7095 30.8922 99.8623L17.0971 100.738C13.7947 100.948 11.6804 97.286 13.5132 94.531L21.1695 83.0221C22.5044 81.0156 21.7749 78.293 19.6156 77.2227L7.23057 71.0839C4.26577 69.6144 4.26576 65.3856 7.23056 63.9161L19.6156 57.7773C21.7749 56.707 22.5044 53.9844 21.1695 51.9779L13.5132 40.469C11.6804 37.714 13.7947 34.0518 17.0971 34.2615L30.8922 35.1377C33.2974 35.2905 35.2905 33.2974 35.1377 30.8922L34.2615 17.0971C34.0518 13.7947 37.714 11.6804 40.469 13.5132L51.9779 21.1695C53.9844 22.5044 56.707 21.7749 57.7773 19.6156L63.9161 7.23057Z" fill="#FFA800"/>
<path d="M33.797 74L35.781 63.824H32.645V57.04H37.061L39.365 45.328H34.053V38.544H40.581L42.565 28.88H49.925L47.941 38.544H53.509L55.429 28.88H62.789L60.869 38.544H64.005V45.328H59.589L57.285 57.04H62.597V63.824H56.005L54.021 74H46.661L48.645 63.824H43.141L41.157 74H33.797ZM44.421 57.04H49.925L52.229 45.328H46.725L44.421 57.04ZM73.26 74V64.464H83.308V41.744L75.692 46.096L71.404 37.584L86.764 28.88H95.02V64.464H104.428V74H73.26ZM30.4175 91.154C29.5775 91.154 28.8495 91.0093 28.2335 90.72C27.6268 90.4213 27.1602 90.0013 26.8335 89.46C26.5068 88.9187 26.3435 88.2793 26.3435 87.542C26.3435 86.842 26.4975 86.2213 26.8055 85.68C27.1228 85.1387 27.5522 84.7187 28.0935 84.42C28.6442 84.112 29.2695 83.958 29.9695 83.958C30.6602 83.958 31.2575 84.1027 31.7615 84.392C32.2748 84.6813 32.6668 85.0967 32.9375 85.638C33.2175 86.17 33.3575 86.7953 33.3575 87.514V88.06H28.7235C28.8075 88.508 28.9942 88.83 29.2835 89.026C29.5728 89.222 29.9742 89.32 30.4875 89.32C30.8422 89.32 31.2108 89.2687 31.5935 89.166C31.9855 89.054 32.3308 88.8953 32.6295 88.69L33.2455 90.328C32.8908 90.58 32.4568 90.7807 31.9435 90.93C31.4302 91.0793 30.9215 91.154 30.4175 91.154ZM30.0815 85.568C29.7082 85.568 29.4002 85.68 29.1575 85.904C28.9242 86.128 28.7748 86.4547 28.7095 86.884H31.3135C31.2855 86.4453 31.1642 86.1187 30.9495 85.904C30.7442 85.68 30.4548 85.568 30.0815 85.568ZM37.1191 91.154C36.5311 91.154 36.0085 91.0093 35.5511 90.72C35.1031 90.4307 34.7485 90.0153 34.4871 89.474C34.2351 88.9327 34.1091 88.2933 34.1091 87.556C34.1091 86.8093 34.2351 86.17 34.4871 85.638C34.7485 85.0967 35.1031 84.6813 35.5511 84.392C36.0085 84.1027 36.5311 83.958 37.1191 83.958C37.5578 83.958 37.9591 84.0513 38.3231 84.238C38.6965 84.4153 38.9811 84.6487 39.1771 84.938V81.13H41.6691V91H39.2331V90.048C39.0558 90.384 38.7758 90.6547 38.3931 90.86C38.0105 91.056 37.5858 91.154 37.1191 91.154ZM37.9171 89.32C38.2905 89.32 38.5985 89.18 38.8411 88.9C39.0838 88.62 39.2051 88.172 39.2051 87.556C39.2051 86.9307 39.0838 86.4827 38.8411 86.212C38.5985 85.932 38.2905 85.792 37.9171 85.792C37.5345 85.792 37.2218 85.932 36.9791 86.212C36.7365 86.4827 36.6151 86.9307 36.6151 87.556C36.6151 88.172 36.7365 88.62 36.9791 88.9C37.2218 89.18 37.5345 89.32 37.9171 89.32ZM43.0428 82.922V80.668H45.6608V82.922H43.0428ZM43.1128 91V84.112H45.6048V91H43.1128ZM50.6623 91.154C49.6169 91.154 48.8423 90.9113 48.3383 90.426C47.8343 89.9407 47.5823 89.208 47.5823 88.228V85.946H46.2943V84.112H47.5823V82.11H50.0743V84.112H52.0343V85.946H50.0743V88.144C50.0743 88.816 50.4149 89.152 51.0963 89.152C51.2083 89.152 51.3296 89.1427 51.4603 89.124C51.6003 89.096 51.7543 89.0587 51.9223 89.012L52.2583 90.804C52.0436 90.916 51.7916 91 51.5023 91.056C51.2129 91.1213 50.9329 91.154 50.6623 91.154ZM56.4288 91.154C55.6635 91.154 54.9962 91.0093 54.4268 90.72C53.8575 90.4307 53.4142 90.0153 53.0968 89.474C52.7795 88.9327 52.6208 88.2933 52.6208 87.556C52.6208 86.8093 52.7795 86.17 53.0968 85.638C53.4142 85.0967 53.8575 84.6813 54.4268 84.392C54.9962 84.1027 55.6635 83.958 56.4288 83.958C57.1942 83.958 57.8615 84.1027 58.4308 84.392C59.0002 84.6813 59.4388 85.0967 59.7468 85.638C60.0642 86.17 60.2228 86.8093 60.2228 87.556C60.2228 88.2933 60.0642 88.9327 59.7468 89.474C59.4388 90.0153 59.0002 90.4307 58.4308 90.72C57.8615 91.0093 57.1942 91.154 56.4288 91.154ZM56.4288 89.32C56.8022 89.32 57.1102 89.18 57.3528 88.9C57.5955 88.62 57.7168 88.172 57.7168 87.556C57.7168 86.9307 57.5955 86.4827 57.3528 86.212C57.1102 85.932 56.8022 85.792 56.4288 85.792C56.0462 85.792 55.7335 85.932 55.4908 86.212C55.2482 86.4827 55.1268 86.9307 55.1268 87.556C55.1268 88.172 55.2482 88.62 55.4908 88.9C55.7335 89.18 56.0462 89.32 56.4288 89.32ZM61.3647 91V84.112H63.7867V85.274C64.1041 84.4807 64.7901 84.0467 65.8447 83.972L66.5307 83.916L66.6707 86.016L65.3127 86.142C64.8181 86.1887 64.4587 86.3287 64.2347 86.562C64.0107 86.786 63.8987 87.122 63.8987 87.57V91H61.3647ZM68.9225 85.862L67.9845 85.106C68.4885 84.602 68.8012 84.126 68.9225 83.678H67.7465V81.13H70.3365V82.74C70.3365 83.328 70.2292 83.8647 70.0145 84.35C69.8092 84.8353 69.4452 85.3393 68.9225 85.862ZM74.0618 91.154C73.4272 91.154 72.8392 91.0887 72.2978 90.958C71.7658 90.8273 71.3132 90.6453 70.9398 90.412L71.5138 88.802C71.8592 88.998 72.2605 89.1613 72.7178 89.292C73.1752 89.4133 73.6278 89.474 74.0758 89.474C74.4212 89.474 74.6685 89.4273 74.8178 89.334C74.9672 89.2313 75.0418 89.1007 75.0418 88.942C75.0418 88.802 74.9905 88.6993 74.8878 88.634C74.7945 88.5593 74.6592 88.5033 74.4818 88.466L72.9278 88.214C72.3492 88.1207 71.9012 87.9107 71.5838 87.584C71.2665 87.2573 71.1078 86.8327 71.1078 86.31C71.1078 85.8247 71.2432 85.4093 71.5138 85.064C71.7845 84.7093 72.1625 84.4387 72.6478 84.252C73.1332 84.056 73.6885 83.958 74.3138 83.958C74.8085 83.958 75.2985 84.0187 75.7838 84.14C76.2692 84.252 76.6938 84.4387 77.0578 84.7L76.4418 86.282C76.1712 86.0953 75.8352 85.9413 75.4338 85.82C75.0325 85.6893 74.6732 85.624 74.3558 85.624C73.9732 85.624 73.7025 85.68 73.5438 85.792C73.3852 85.8947 73.3058 86.0207 73.3058 86.17C73.3058 86.422 73.4785 86.576 73.8238 86.632L75.3778 86.898C75.9752 86.9913 76.4325 87.1967 76.7498 87.514C77.0765 87.822 77.2398 88.242 77.2398 88.774C77.2398 89.53 76.9505 90.118 76.3718 90.538C75.7932 90.9487 75.0232 91.154 74.0618 91.154ZM82.269 93.52V84.112H84.691V85.05C84.8777 84.714 85.1623 84.448 85.545 84.252C85.9277 84.056 86.3477 83.958 86.805 83.958C87.393 83.958 87.911 84.1027 88.359 84.392C88.8163 84.6813 89.171 85.0967 89.423 85.638C89.6843 86.17 89.815 86.8093 89.815 87.556C89.815 88.2933 89.689 88.9327 89.437 89.474C89.185 90.0153 88.8303 90.4307 88.373 90.72C87.925 91.0093 87.4023 91.154 86.805 91.154C86.3757 91.154 85.9743 91.0653 85.601 90.888C85.237 90.7107 84.957 90.4727 84.761 90.174V93.52H82.269ZM86.021 89.32C86.3943 89.32 86.7023 89.18 86.945 88.9C87.1877 88.62 87.309 88.172 87.309 87.556C87.309 86.9307 87.1877 86.4827 86.945 86.212C86.7023 85.932 86.3943 85.792 86.021 85.792C85.6383 85.792 85.3257 85.932 85.083 86.212C84.8403 86.4827 84.719 86.9307 84.719 87.556C84.719 88.172 84.8403 88.62 85.083 88.9C85.3257 89.18 85.6383 89.32 86.021 89.32ZM90.8807 82.922V80.668H93.4987V82.922H90.8807ZM90.9507 91V84.112H93.4427V91H90.9507ZM98.4022 91.154C97.6275 91.154 96.9508 91.0093 96.3722 90.72C95.8028 90.4307 95.3595 90.0153 95.0422 89.474C94.7248 88.9327 94.5662 88.2887 94.5662 87.542C94.5662 86.7953 94.7248 86.156 95.0422 85.624C95.3595 85.0827 95.8028 84.672 96.3722 84.392C96.9508 84.1027 97.6275 83.958 98.4022 83.958C98.8595 83.958 99.3122 84.0233 99.7602 84.154C100.217 84.2753 100.591 84.448 100.88 84.672L100.222 86.38C100.007 86.212 99.7555 86.0813 99.4662 85.988C99.1862 85.8853 98.9202 85.834 98.6682 85.834C98.1735 85.834 97.7908 85.9833 97.5202 86.282C97.2495 86.5807 97.1142 87.0007 97.1142 87.542C97.1142 88.0927 97.2495 88.522 97.5202 88.83C97.7908 89.1287 98.1735 89.278 98.6682 89.278C98.9202 89.278 99.1862 89.2313 99.4662 89.138C99.7555 89.0353 100.007 88.9 100.222 88.732L100.88 90.44C100.591 90.664 100.217 90.8413 99.7602 90.972C99.3028 91.0933 98.8502 91.154 98.4022 91.154ZM101.669 91V81.13H104.161V86.884H104.189L106.457 84.112H109.383L106.653 87.388L109.481 91H106.499L104.189 88.13H104.161V91H101.669ZM40.0367 108V102.946H38.7347V101.112H40.0367C40.0834 100.141 40.396 99.4133 40.9747 98.928C41.5534 98.4333 42.4307 98.1533 43.6067 98.088L44.4467 98.046L44.5867 99.824L43.9427 99.866C43.4014 99.9033 43.028 100.001 42.8227 100.16C42.6267 100.319 42.5287 100.566 42.5287 100.902V101.112H44.2647V102.946H42.5287V108H40.0367ZM48.4171 108.154C47.6518 108.154 46.9845 108.009 46.4151 107.72C45.8458 107.431 45.4025 107.015 45.0851 106.474C44.7678 105.933 44.6091 105.293 44.6091 104.556C44.6091 103.809 44.7678 103.17 45.0851 102.638C45.4025 102.097 45.8458 101.681 46.4151 101.392C46.9845 101.103 47.6518 100.958 48.4171 100.958C49.1825 100.958 49.8498 101.103 50.4191 101.392C50.9885 101.681 51.4271 102.097 51.7351 102.638C52.0525 103.17 52.2111 103.809 52.2111 104.556C52.2111 105.293 52.0525 105.933 51.7351 106.474C51.4271 107.015 50.9885 107.431 50.4191 107.72C49.8498 108.009 49.1825 108.154 48.4171 108.154ZM48.4171 106.32C48.7905 106.32 49.0985 106.18 49.3411 105.9C49.5838 105.62 49.7051 105.172 49.7051 104.556C49.7051 103.931 49.5838 103.483 49.3411 103.212C49.0985 102.932 48.7905 102.792 48.4171 102.792C48.0345 102.792 47.7218 102.932 47.4791 103.212C47.2365 103.483 47.1151 103.931 47.1151 104.556C47.1151 105.172 47.2365 105.62 47.4791 105.9C47.7218 106.18 48.0345 106.32 48.4171 106.32ZM53.353 108V101.112H55.775V102.274C56.0923 101.481 56.7783 101.047 57.833 100.972L58.519 100.916L58.659 103.016L57.301 103.142C56.8063 103.189 56.447 103.329 56.223 103.562C55.999 103.786 55.887 104.122 55.887 104.57V108H53.353ZM63.6672 108V106.11L66.6352 103.002C66.9992 102.61 67.2558 102.274 67.4052 101.994C67.5638 101.714 67.6432 101.434 67.6432 101.154C67.6432 100.445 67.1905 100.09 66.2852 100.09C65.9118 100.09 65.5292 100.16 65.1372 100.3C64.7545 100.44 64.3718 100.655 63.9892 100.944L63.1912 99.068C63.6205 98.732 64.1385 98.466 64.7452 98.27C65.3612 98.074 65.9958 97.976 66.6492 97.976C67.7878 97.976 68.6558 98.2233 69.2532 98.718C69.8598 99.2127 70.1632 99.9267 70.1632 100.86C70.1632 101.457 70.0278 102.031 69.7572 102.582C69.4865 103.123 69.0338 103.702 68.3992 104.318L66.8032 105.914H70.5272V108H63.6672ZM75.2957 108.154C74.073 108.154 73.1397 107.711 72.4957 106.824C71.8517 105.928 71.5297 104.663 71.5297 103.03C71.5297 101.387 71.8517 100.137 72.4957 99.278C73.1397 98.41 74.073 97.976 75.2957 97.976C76.5184 97.976 77.4517 98.41 78.0957 99.278C78.7397 100.137 79.0617 101.383 79.0617 103.016C79.0617 104.659 78.7397 105.928 78.0957 106.824C77.4517 107.711 76.5184 108.154 75.2957 108.154ZM75.2957 106.11C75.7437 106.11 76.075 105.867 76.2897 105.382C76.5137 104.887 76.6257 104.099 76.6257 103.016C76.6257 101.943 76.5137 101.177 76.2897 100.72C76.075 100.253 75.7437 100.02 75.2957 100.02C74.8477 100.02 74.5117 100.253 74.2877 100.72C74.073 101.177 73.9657 101.943 73.9657 103.016C73.9657 104.099 74.073 104.887 74.2877 105.382C74.5117 105.867 74.8477 106.11 75.2957 106.11ZM80.4562 108V106.11L83.4242 103.002C83.7882 102.61 84.0449 102.274 84.1942 101.994C84.3529 101.714 84.4322 101.434 84.4322 101.154C84.4322 100.445 83.9796 100.09 83.0742 100.09C82.7009 100.09 82.3182 100.16 81.9262 100.3C81.5436 100.44 81.1609 100.655 80.7782 100.944L79.9802 99.068C80.4096 98.732 80.9276 98.466 81.5342 98.27C82.1502 98.074 82.7849 97.976 83.4382 97.976C84.5769 97.976 85.4449 98.2233 86.0422 98.718C86.6489 99.2127 86.9522 99.9267 86.9522 100.86C86.9522 101.457 86.8169 102.031 86.5462 102.582C86.2756 103.123 85.8229 103.702 85.1882 104.318L83.5922 105.914H87.3162V108H80.4562ZM92.3228 108V106.348H88.3188V104.542L92.7288 98.13H94.8008V104.402H96.0888V106.348H94.8008V108H92.3228ZM92.3228 104.402V101.756L90.5448 104.402H92.3228Z" fill="white"/>
</svg>
