<svg width="51" height="52" viewBox="0 0 51 52" fill="none" xmlns="http://www.w3.org/2000/svg">
<g clip-path="url(#clip0_17_1099)">
<path d="M48.9223 11.5639V40.0352H1.60406V11.5639C1.60406 9.12589 3.57696 7.15283 6.01517 7.15283H7.21817V14.3869C7.21817 23.5619 12.9766 31.9188 21.558 35.1908L23.9801 36.1052C24.3971 36.2656 24.8302 36.3458 25.2633 36.3458C25.6964 36.3458 26.1294 36.2656 26.5465 36.1052L28.9686 35.1908C37.5501 31.9186 43.3085 23.5617 43.3085 14.3869V7.15299H44.5115C46.9495 7.15299 48.9223 9.12573 48.9223 11.5639Z" fill="black"/>
<path d="M49.3233 42.4409H1.203C0.538895 42.4409 0 42.9798 0 43.6439V46.8519C0 49.2845 1.97842 51.263 4.41111 51.263H46.1152C48.5479 51.263 50.5263 49.2845 50.5263 46.8519V43.6439C50.5263 42.9798 49.9874 42.4409 49.3233 42.4409Z" fill="black"/>
<path d="M24.0602 0.736816V14.5313H9.62401V6.33482C9.62401 5.67719 10.1694 5.13182 10.827 5.13182C12.5913 5.13182 14.019 3.70429 14.019 1.93982C14.019 1.28218 14.5644 0.736816 15.222 0.736816L24.0602 0.736816Z" fill="#F330F2"/>
<path d="M9.80054 16.9375H24.0602V33.5711L22.408 32.9457C15.559 30.3311 10.7309 24.0916 9.80054 16.9375Z" fill="#383838"/>
<path d="M26.4662 16.9375H40.7258C39.7955 24.0914 34.9674 30.3311 28.1184 32.9457L26.4662 33.5711V16.9375Z" fill="#15F2F2"/>
<path d="M40.9023 6.33482V14.5313H26.4662V0.736816H35.3043C35.962 0.736816 36.5073 1.28218 36.5073 1.93982C36.5073 3.70413 37.9349 5.13182 39.6993 5.13182C40.357 5.13182 40.9023 5.67719 40.9023 6.33482Z" fill="#F1EF11"/>
</g>
<defs>
<clipPath id="clip0_17_1099">
<rect width="50.5263" height="50.5263" fill="white" transform="translate(0 0.736816)"/>
</clipPath>
</defs>
</svg>
