<svg width="64" height="64" viewBox="0 0 64 64" fill="none" xmlns="http://www.w3.org/2000/svg">
<rect width="64" height="64" rx="12" fill="white"/>
<g clip-path="url(#clip0_13_646)">
<path d="M26 36C26 39.3086 28.6914 42 32 42C35.3086 42 38 39.3086 38 36C38 32.6914 35.3086 30 32 30C28.6914 30 26 32.6914 26 36ZM35.707 34.293C36.0977 34.6836 36.0977 35.3164 35.707 35.707L31.707 39.707C31.5117 39.9023 31.2559 40 31 40C30.7441 40 30.4883 39.9023 30.293 39.707L28.293 37.707C27.9023 37.3164 27.9023 36.6836 28.293 36.293C28.6836 35.9024 29.3164 35.9024 29.707 36.293L31 37.5859L34.293 34.293C34.6836 33.9023 35.3164 33.9023 35.707 34.293Z" fill="#076B82"/>
<path d="M29.4951 25.8496C27.3652 27.2559 24.8896 28 22.335 28H21C20.4482 28 20 28.4492 20 29V37.8145C20 40.1133 21.1279 42.2656 23.0186 43.5723L31.9971 49.7832L41.0059 43.4961C42.8809 42.1875 44 40.043 44 37.7559V29C44 28.4492 43.5518 28 43 28H41.71C39.1875 28 36.7373 27.2734 34.624 25.8984L32.0039 24.1953L29.4951 25.8496ZM40 36C40 40.4121 36.4111 44 32 44C27.5889 44 24 40.4121 24 36C24 31.5879 27.5889 28 32 28C36.4111 28 40 31.5879 40 36Z" fill="#076B82"/>
<path d="M32.293 19.707L28.5859 16H8V55C8 55.5527 8.44726 56 9 56H55C55.5527 56 56 55.5527 56 55V20H33C32.7344 20 32.4805 19.8945 32.293 19.707ZM41.71 26H43C44.6543 26 46 27.3457 46 29V37.7559C46 40.6953 44.5605 43.4551 42.1504 45.1367L32.5723 51.8203C32.4004 51.9395 32.2002 52 32 52C31.8008 52 31.6025 51.9414 31.4316 51.8223L21.8809 45.2168C19.4502 43.5371 18 40.7695 18 37.8145V29C18 27.3457 19.3457 26 21 26H22.335C24.4961 26 26.5918 25.3711 28.3936 24.1816L31.4492 22.166C31.7803 21.9453 32.21 21.9453 32.5449 22.1621L35.7139 24.2227C37.5029 25.3848 39.5762 26 41.71 26Z" fill="#076B82"/>
<path d="M55 8H9C8.43994 8 8 8.43994 8 9V14H29C29.26 14 29.52 14.1 29.7 14.2999L33.42 18H56V9C56 8.43994 55.5601 8 55 8ZM38 14C36.9 14 36 13.1 36 12C36 10.9 36.9 10 38 10C39.1 10 40 10.9 40 12C40 13.1 39.1 14 38 14ZM44 14C42.9 14 42 13.1 42 12C42 10.9 42.9 10 44 10C45.1 10 46 10.9 46 12C46 13.1 45.1 14 44 14ZM50 14C48.9 14 48 13.1 48 12C48 10.9 48.9 10 50 10C51.1 10 52 10.9 52 12C52 13.1 51.1 14 50 14Z" fill="#076B82"/>
</g>
<defs>
<clipPath id="clip0_13_646">
<rect width="48" height="48" fill="white" transform="translate(8 8)"/>
</clipPath>
</defs>
</svg>
