<svg width="135" height="135" viewBox="0 0 135 135" fill="none" xmlns="http://www.w3.org/2000/svg">
<path d="M63.9161 7.23057C65.3856 4.26577 69.6144 4.26576 71.0839 7.23056L77.2227 19.6156C78.293 21.7749 81.0156 22.5044 83.0221 21.1695L94.531 13.5132C97.286 11.6804 100.948 13.7947 100.738 17.0971L99.8623 30.8922C99.7095 33.2974 101.703 35.2905 104.108 35.1377L117.903 34.2615C121.205 34.0518 123.32 37.714 121.487 40.469L113.83 51.9779C112.496 53.9844 113.225 56.707 115.384 57.7773L127.769 63.9161C130.734 65.3856 130.734 69.6144 127.769 71.0839L115.384 77.2227C113.225 78.293 112.496 81.0156 113.83 83.0221L121.487 94.531C123.32 97.286 121.205 100.948 117.903 100.738L104.108 99.8623C101.703 99.7095 99.7095 101.703 99.8623 104.108L100.738 117.903C100.948 121.205 97.286 123.32 94.531 121.487L83.0221 113.83C81.0156 112.496 78.293 113.225 77.2227 115.384L71.0839 127.769C69.6144 130.734 65.3856 130.734 63.9161 127.769L57.7773 115.384C56.707 113.225 53.9844 112.496 51.9779 113.83L40.469 121.487C37.714 123.32 34.0518 121.205 34.2615 117.903L35.1377 104.108C35.2905 101.703 33.2974 99.7095 30.8922 99.8623L17.0971 100.738C13.7947 100.948 11.6804 97.286 13.5132 94.531L21.1695 83.0221C22.5044 81.0156 21.7749 78.293 19.6156 77.2227L7.23057 71.0839C4.26577 69.6144 4.26576 65.3856 7.23056 63.9161L19.6156 57.7773C21.7749 56.707 22.5044 53.9844 21.1695 51.9779L13.5132 40.469C11.6804 37.714 13.7947 34.0518 17.0971 34.2615L30.8922 35.1377C33.2974 35.2905 35.2905 33.2974 35.1377 30.8922L34.2615 17.0971C34.0518 13.7947 37.714 11.6804 40.469 13.5132L51.9779 21.1695C53.9844 22.5044 56.707 21.7749 57.7773 19.6156L63.9161 7.23057Z" fill="#076B82"/>
<path d="M66.1685 89.704C62.9685 89.704 59.8965 89.2773 56.9525 88.424C54.0085 87.528 51.6618 86.3547 49.9125 84.904L53.4965 76.136C57.2085 78.7387 61.2832 80.04 65.7205 80.04C70.3285 80.04 72.6325 78.4613 72.6325 75.304C72.6325 72.4027 70.5845 70.952 66.4885 70.952H58.6165V61.608H65.3365C67.1712 61.608 68.6005 61.224 69.6245 60.456C70.6912 59.688 71.2245 58.5787 71.2245 57.128C71.2245 54.2693 69.2405 52.84 65.2725 52.84C61.2192 52.84 57.5498 54.1413 54.2645 56.744L50.6165 48.168C52.5365 46.5893 54.8832 45.3733 57.6565 44.52C60.4725 43.624 63.3952 43.176 66.4245 43.176C71.4592 43.176 75.3845 44.2853 78.2005 46.504C81.0165 48.68 82.4245 51.7093 82.4245 55.592C82.4245 57.896 81.8485 59.9227 80.6965 61.672C79.5445 63.4213 77.9445 64.7013 75.8965 65.512C78.4138 66.2373 80.3552 67.56 81.7205 69.48C83.1285 71.4 83.8325 73.7253 83.8325 76.456C83.8325 80.552 82.2538 83.7947 79.0965 86.184C75.9818 88.5307 71.6725 89.704 66.1685 89.704Z" fill="white"/>
</svg>
